# xmcd
#
# Track frame offsets:
#	150
#	13650
#	24937
#	38850
#	52250
#	68700
#	87700
#	107200
#	129750
#	148500
#	169825
#	185900
#	208275
#	225750
#	241275
#
# Disc length: 3456 seconds
#
# Revision: 3
# Processed by: cddbd v1.5.2PL0 Copyright (c) Steve Scherf et al.
# Submitted via: EasyCDDAExtractor 2010.6.0.0
#
DISCID=d10d7e0f
DTITLE=Various Artist - 港劇經典CD3
DYEAR=1997
DGENRE=Other
TTITLE0=許冠傑 - 天才白痴往日情
TTITLE1=許冠傑 - 天才白痴夢
TTITLE2=許冠傑 - 浪子心聲
TTITLE3=許冠傑 - 雙星情歌
TTITLE4=甄妮 - 海上花
TTITLE5=羅文 - 幾許風雨
TTITLE6=張學友 - 遙遠的她
TTITLE7=陳慧嫻 - 千千闕歌
TTITLE8=張國榮 - 沉默是金
TTITLE9=鄭少秋 - 天涯孤客
TTITLE10=陳百強 - 喝采
TTITLE11=關正傑 - 恨綿綿
TTITLE12=麗莎 - 相思淚
TTITLE13=陳百強 - 念親恩
TTITLE14=鐘鎮濤 - 讓一切隨風
EXTD=YEAR: 1997
EXTT0=
EXTT1=
EXTT2=
EXTT3=
EXTT4=
EXTT5=
EXTT6=
EXTT7=
EXTT8=
EXTT9=
EXTT10=
EXTT11=
EXTT12=
EXTT13=
EXTT14=
PLAYORDER=
